<svg width="72" height="24" viewBox="0 0 72 24" fill="none" xmlns="http://www.w3.org/2000/svg">
<path d="M60.8034 12.937H49.8369V23.867H60.8034V12.937Z" fill="#606060"/>
<path d="M63.3584 23.8214L71.9999 14.6592V3.72925L63.3584 12.8914V23.8214Z" fill="#0098A0"/>
<path d="M72 0H61.0335L51.0625 10.3935H62.0322L72 0Z" fill="#0098A0"/>
<path d="M35.8849 12.937H24.9185V23.867H35.8849V12.937Z" fill="#606060"/>
<path d="M38.4399 23.8214L47.0815 14.6592V3.72925L38.4399 12.8914V23.8214Z" fill="#0098A0"/>
<path d="M47.0815 0H36.1151L26.144 10.3935H37.1138L47.0815 0Z" fill="#0098A0"/>
<path d="M10.9665 12.937H0V23.867H10.9665V12.937Z" fill="#606060"/>
<path d="M13.5215 23.8214L22.163 14.6592V3.72925L13.5215 12.8914V23.8214Z" fill="#0098A0"/>
<path d="M22.1631 0H11.1966L1.22559 10.3935H12.1953L22.1631 0Z" fill="#0098A0"/>
</svg>
