<svg width="176" height="128" viewBox="0 0 176 128" fill="none" xmlns="http://www.w3.org/2000/svg">
<circle cx="116.5" cy="68.5" r="59.5" fill="#FFF700"/>
<g clip-path="url(#clip0_35_39)">
<path d="M81.3828 57.2366L80.7983 57.5411L80.1814 57.889C79.5428 58.2696 78.915 58.6828 78.2981 59.1177C77.6812 59.5526 77.0534 60.0528 76.404 60.5856C76.2859 60.6797 76.1356 60.7234 75.9857 60.7071C75.8359 60.6908 75.6984 60.6159 75.603 60.4986L72.8538 57.3345C72.7501 57.2287 72.6919 57.0861 72.6919 56.9376C72.6919 56.7891 72.7501 56.6465 72.8538 56.5407C73.3409 56.0949 73.8496 55.6491 74.3691 55.2468C74.8887 54.8445 75.4515 54.4422 76.0143 54.0616C76.5772 53.6811 76.9235 53.4962 77.3889 53.2353C77.8543 52.9743 78.3414 52.7242 78.8068 52.5068L79.3804 52.2349C77.747 49.5408 75.3708 47.3804 72.54 46.0154C71.1319 45.3382 69.6392 44.8555 68.1023 44.5802C66.5336 44.3069 64.9357 44.2448 63.3507 44.3953C61.7749 44.5434 60.227 44.9093 58.7507 45.4826C57.3056 46.0391 55.9492 46.8047 54.7244 47.7551C53.1695 48.9729 51.8615 50.4789 50.8712 52.1914C49.8504 53.9552 49.1401 55.8827 48.7714 57.889L48.5008 59.3352C48.4784 59.4497 48.4219 59.5546 48.3388 59.6362C48.2557 59.7177 48.1499 59.772 48.0354 59.7918L46.6067 60.0419C45.9248 60.1615 45.2754 60.3029 44.6693 60.466C44.0632 60.6291 43.4895 60.8248 42.97 61.0314C42.4749 61.2174 41.9938 61.439 41.5304 61.6947C41.0908 61.9259 40.6677 62.1875 40.2641 62.4775C39.9616 62.6994 39.6725 62.939 39.3982 63.1952C38.3602 64.1673 37.5759 65.3808 37.1144 66.729C36.7585 67.7789 36.5828 68.8819 36.5949 69.991C36.611 71.1003 36.7972 72.2006 37.1469 73.2529C37.4967 74.3163 38.0039 75.3206 38.6514 76.2322C38.9004 76.5763 39.1678 76.9066 39.4523 77.2217C39.7393 77.5247 40.0428 77.8115 40.3615 78.0807C40.7011 78.357 41.0631 78.6044 41.4439 78.82C41.7897 79.0361 42.1515 79.2252 42.5262 79.3855C42.9511 79.5665 43.3889 79.7155 43.8359 79.8313C44.3018 79.9567 44.7754 80.0512 45.2537 80.114H86.6755C87.5898 79.8938 88.4898 79.6178 89.3706 79.2876C90.1925 78.9908 90.9888 78.6272 91.7518 78.2003C92.4474 77.821 93.1037 77.373 93.7109 76.8629C95.1673 75.6486 96.2145 74.0118 96.709 72.1765C97.0798 70.8901 97.2692 69.5578 97.2718 68.2186C97.292 66.8078 97.1282 65.4005 96.7848 64.0324C96.4798 62.8139 95.9867 61.6509 95.3236 60.5856C95.1287 60.292 94.9231 60.0093 94.7283 59.7483C94.5334 59.4874 94.3062 59.2264 94.0897 58.9981C93.1979 58.0341 92.1185 57.2643 90.9184 56.7365C89.702 56.222 88.3958 55.9559 87.076 55.9536C86.1259 55.9478 85.1783 56.05 84.2511 56.258C83.2587 56.4852 82.2908 56.8093 81.3612 57.2257L81.3828 57.2366ZM48.5008 46.3634L39.842 37.6648C37.2051 39.222 34.1274 39.8535 31.0938 39.4598C28.0603 39.0661 25.2434 37.6695 23.0871 35.4901C20.5329 32.9316 19.083 29.4665 19.0506 25.8431C19.0182 22.2198 20.4059 18.729 22.9139 16.1248L23.0871 15.9291C24.3657 14.643 25.8842 13.6227 27.5557 12.9265C29.2272 12.2304 31.0189 11.8721 32.8283 11.8721C34.6377 11.8721 36.4294 12.2304 38.1009 12.9265C39.7724 13.6227 41.2908 14.643 42.5695 15.9291C44.7355 18.0928 46.1237 20.9187 46.5156 23.962C46.9075 27.0052 46.2808 30.093 44.7342 32.7392L53.8693 41.9162C54.8207 41.3639 55.8121 40.8841 56.835 40.4809C58.7826 39.7189 60.8261 39.2322 62.907 39.0348C64.6659 38.8661 66.4383 38.9026 68.1889 39.1435V27.1829C65.7995 26.5685 63.6194 25.3176 61.8787 23.5621C59.5289 20.9412 58.2637 17.5178 58.3417 13.9913C58.4197 10.4648 59.8349 7.10129 62.2983 4.58772C64.7617 2.07414 68.0874 0.600188 71.5961 0.466922C75.1049 0.333657 78.5319 1.55113 81.1772 3.87067L81.372 4.05552C82.6535 5.33932 83.6703 6.86454 84.3641 8.54379C85.0579 10.223 85.415 12.0233 85.415 13.8415C85.415 15.6596 85.0579 17.4599 84.3641 19.1391C83.6703 20.8184 82.6535 22.3436 81.372 23.6274C79.6337 25.3803 77.4578 26.631 75.0727 27.2482V41.2529C79.2486 43.2863 82.6636 46.614 84.8139 50.7453L95.6375 39.9916C94.0927 37.3449 93.4671 34.2576 93.8589 31.2148C94.2508 28.172 95.6378 25.3463 97.8022 23.1816C100.341 20.6708 103.751 19.2492 107.314 19.2168C110.876 19.1843 114.311 20.5435 116.895 23.0076L117.09 23.1816C118.37 24.4661 119.386 25.9916 120.079 27.6707C120.772 29.3499 121.128 31.1498 121.128 32.9675C121.128 34.7852 120.772 36.5852 120.079 38.2643C119.386 39.9435 118.37 41.4689 117.09 42.7534C114.936 44.9252 112.125 46.317 109.098 46.7106C106.072 47.1042 103.001 46.4772 100.367 44.9281L93.3861 51.9957C95.1238 52.8069 96.6865 53.952 97.9862 55.3664C98.3 55.7144 98.6139 56.0841 98.917 56.4537C99.2201 56.8234 99.4906 57.2366 99.7721 57.6607C100.743 59.1724 101.473 60.8268 101.937 62.5645C102.427 64.423 102.663 66.3397 102.64 68.2621V68.5013H105.887C106.499 66.1009 107.744 63.9109 109.492 62.1622C112.076 59.6633 115.528 58.2753 119.115 58.2932C122.702 58.3111 126.14 59.7333 128.7 62.2578C131.259 64.7823 132.738 68.2099 132.821 71.8123C132.905 75.4147 131.587 78.9078 129.147 81.5492L128.963 81.7449C126.378 84.3371 122.875 85.793 119.222 85.793C115.569 85.793 112.066 84.3371 109.481 81.7449C107.734 80.0043 106.489 77.8214 105.877 75.4276H101.222C100.779 76.5271 100.197 77.5649 99.4906 78.5156C98.8202 79.4155 98.0504 80.2362 97.1961 80.9621C96.323 81.7122 95.3765 82.3716 94.3711 82.9301C93.3286 83.504 92.2429 83.9948 91.124 84.398C89.937 84.8295 88.7264 85.1925 87.4981 85.4854C86.049 85.7016 84.5893 85.8395 83.1254 85.8985L93.1697 95.9889C95.8066 94.4317 98.8843 93.8002 101.918 94.1939C104.951 94.5876 107.768 95.9842 109.925 98.1636C112.479 100.722 113.929 104.187 113.961 107.811C113.993 111.434 112.606 114.925 110.098 117.529L109.925 117.725C108.646 119.011 107.127 120.031 105.456 120.727C103.784 121.423 101.993 121.782 100.183 121.782C98.3739 121.782 96.5822 121.423 94.9108 120.727C93.2393 120.031 91.7208 119.011 90.4421 117.725C88.2762 115.561 86.888 112.735 86.4961 109.692C86.1042 106.648 86.7308 103.561 88.2774 100.914L73.6007 86.0508C70.7865 86.0508 67.8101 86.0508 64.8444 85.9312V100.751C67.2314 101.378 69.4093 102.631 71.1545 104.383C73.642 106.979 75.0237 110.447 75.0059 114.051C74.9881 117.654 73.5723 121.108 71.0594 123.679C68.5464 126.251 65.1345 127.736 61.5486 127.82C57.9627 127.904 54.4855 126.58 51.8561 124.129L51.6613 123.955C50.381 122.67 49.3654 121.145 48.6724 119.466C47.9795 117.787 47.6228 115.987 47.6228 114.169C47.6228 112.351 47.9795 110.551 48.6724 108.872C49.3654 107.193 50.381 105.668 51.6613 104.383C53.4054 102.638 55.5791 101.388 57.9606 100.762V85.7572C53.0467 85.6267 48.5982 85.4962 45.546 85.4962L37.4716 93.5968C39.0217 96.2458 39.6504 99.3376 39.2584 102.385C38.8665 105.433 37.4763 108.262 35.3069 110.429C32.7601 112.995 29.3108 114.451 25.704 114.484C22.0972 114.516 18.6224 113.122 16.0301 110.603L15.8353 110.429C14.555 109.144 13.5394 107.619 12.8464 105.939C12.1535 104.26 11.7968 102.46 11.7968 100.643C11.7968 98.8249 12.1535 97.025 12.8464 95.3459C13.5394 93.6667 14.555 92.1413 15.8353 90.8567C17.9891 88.6808 20.8021 87.2862 23.8314 86.8925C26.8608 86.4989 29.9344 87.1284 32.5685 88.6821L38.1751 83.0606C37.7406 82.7762 37.3248 82.4639 36.9304 82.1255C36.4501 81.7224 35.9947 81.2903 35.5667 80.8316C35.1389 80.3723 34.7412 79.8856 34.3761 79.3746C32.4021 76.6338 31.331 73.3413 31.313 69.9583C31.2997 68.3279 31.5445 66.7056 32.0382 65.1524H27.1243C26.5127 67.5527 25.2675 69.7428 23.52 71.4915C22.2522 72.7887 20.7424 73.8224 19.0768 74.5335C17.4113 75.2445 15.6227 75.6191 13.8131 75.6358C10.1584 75.6694 6.64012 74.2432 4.03219 71.6709C1.42426 69.0986 -0.0596787 65.5908 -0.0931706 61.9194C-0.126663 58.2479 1.29303 54.7135 3.8536 52.0936L4.0376 51.8979C5.31553 50.6104 6.83379 49.589 8.50536 48.892C10.1769 48.195 11.969 47.8363 13.7788 47.8363C15.5886 47.8363 17.3807 48.195 19.0523 48.892C20.7238 49.589 22.2421 50.6104 23.52 51.8979C25.2649 53.6441 26.5099 55.83 27.1243 58.2261H36.9521L37.1685 58.0739C37.7582 57.6471 38.3766 57.262 39.0194 56.9213C39.701 56.5588 40.4061 56.2428 41.13 55.9753C41.6387 55.7796 42.1582 55.5948 42.6994 55.4317C43.2406 55.2686 43.5653 55.1816 44.009 55.0728C44.5946 52.8369 45.522 50.7057 46.7582 48.7555C47.2919 47.9135 47.889 47.1138 48.5441 46.3634H48.5008ZM71.5875 21.3549C73.0653 21.3562 74.5103 20.9164 75.7389 20.0912C76.9675 19.2661 77.9243 18.0928 78.4879 16.7204C79.0516 15.3479 79.1965 13.8382 78.9045 12.3828C78.6125 10.9275 77.8966 9.59208 76.8477 8.54618L76.7178 8.40482C75.2836 7.10593 73.4043 6.41562 71.4743 6.47876C69.5443 6.54189 67.7137 7.35356 66.3665 8.74343C65.0194 10.1333 64.2606 11.9933 64.2492 13.9332C64.2378 15.873 64.9749 17.7419 66.3056 19.1476C66.9984 19.8409 67.8206 20.3899 68.7252 20.7631C69.6298 21.1363 70.5988 21.3263 71.5767 21.3223L71.5875 21.3549ZM38.2293 30.9233C39.5649 29.5047 40.2982 27.6194 40.274 25.6669C40.2498 23.7144 39.4698 21.848 38.0994 20.4633C36.701 19.0596 34.8051 18.2711 32.8283 18.2711C30.8515 18.2711 28.9556 19.0596 27.5572 20.4633L27.4273 20.5937C26.091 22.0142 25.3573 23.9013 25.3816 25.8556C25.4058 27.81 26.1861 29.6781 27.5572 31.0647C28.9574 32.469 30.8551 33.2578 32.8337 33.2578C34.8123 33.2578 36.71 32.469 38.1102 31.0647L38.2509 30.9342L38.2293 30.9233ZM21.2362 61.6947C21.2375 60.2126 20.8013 58.7635 19.9826 57.5306C19.1639 56.2978 17.9997 55.3365 16.6371 54.7685C15.2745 54.2005 13.7748 54.0512 12.3278 54.3396C10.8807 54.6279 9.55131 55.341 8.50773 56.3885L8.36703 56.5407C7.07407 57.9816 6.38692 59.8695 6.44976 61.8084C6.51261 63.7472 7.32057 65.5863 8.70409 66.9396C10.0876 68.2929 11.9391 69.0552 13.8701 69.0666C15.8011 69.078 17.6614 68.3376 19.0607 67.0008C19.7515 66.3076 20.2985 65.4836 20.6701 64.5765C21.0417 63.6694 21.2304 62.6973 21.2254 61.7164L21.2362 61.6947ZM30.761 95.206C29.347 93.8636 27.4685 93.1265 25.5231 93.1509C23.5778 93.1753 21.7181 93.9591 20.3379 95.3365C18.9407 96.7413 18.1558 98.6459 18.1558 100.632C18.1558 102.618 18.9407 104.522 20.3379 105.927L20.4678 106.058C21.88 107.399 23.7566 108.136 25.7002 108.112C27.6438 108.087 29.5016 107.304 30.88 105.927C32.2779 104.52 33.0631 102.614 33.0631 100.626C33.0631 98.6387 32.2779 96.7323 30.88 95.3256L30.7502 95.1843L30.761 95.206ZM61.4025 106.677C59.9304 106.68 58.4921 107.121 57.2688 107.944C56.0456 108.766 55.092 109.934 54.5284 111.301C53.9647 112.667 53.8162 114.17 54.1015 115.621C54.3867 117.072 55.0931 118.405 56.1314 119.453L56.283 119.606C57.6996 120.993 59.6067 121.758 61.5848 121.732C63.5628 121.707 65.4498 120.893 66.8305 119.47C68.2113 118.047 68.9727 116.131 68.9474 114.144C68.922 112.156 68.1119 110.261 66.6952 108.874C66.0025 108.18 65.1802 107.631 64.2756 107.258C63.3711 106.885 62.402 106.695 61.4242 106.699L61.4025 106.677ZM94.7716 102.709C93.4353 104.129 92.7016 106.016 92.7258 107.97C92.7501 109.925 93.5303 111.793 94.9015 113.18C96.2998 114.583 98.1957 115.372 100.173 115.372C102.149 115.372 104.045 114.583 105.444 113.18L105.573 113.049C106.909 111.63 107.642 109.745 107.618 107.793C107.594 105.84 106.814 103.974 105.444 102.589C104.043 101.185 102.146 100.396 100.167 100.396C98.1885 100.396 96.2908 101.185 94.8906 102.589L94.7499 102.719L94.7716 102.709ZM111.765 71.9155C111.772 73.3912 112.213 74.8319 113.032 76.0569C113.851 77.2818 115.012 78.2364 116.37 78.8008C117.727 79.3653 119.22 79.5145 120.661 79.2297C122.103 78.9448 123.428 78.2387 124.471 77.1999L124.612 77.0694C125.905 75.6286 126.592 73.7407 126.529 71.8018C126.467 69.8629 125.659 68.0239 124.275 66.6706C122.892 65.3173 121.04 64.555 119.109 64.5435C117.178 64.5321 115.318 65.2725 113.918 66.6094C113.228 67.3053 112.682 68.1314 112.31 69.0401C111.939 69.9488 111.75 70.9223 111.754 71.9046L111.765 71.9155ZM102.24 38.4041C103.652 39.7459 105.529 40.4826 107.472 40.4583C109.416 40.4339 111.274 39.6504 112.652 38.2737C114.049 36.8689 114.834 34.9643 114.834 32.9784C114.834 30.9925 114.049 29.0879 112.652 27.6831L112.522 27.5526C111.108 26.2102 109.23 25.4731 107.284 25.4975C105.339 25.5218 103.479 26.3057 102.099 27.6831C100.701 29.0898 99.9161 30.9962 99.9161 32.9838C99.9161 34.9715 100.701 36.8779 102.099 38.2845L102.229 38.4259L102.24 38.4041Z" fill="black"/>
</g>
<defs>
<clipPath id="clip0_35_39">
<rect width="133" height="128" fill="white"/>
</clipPath>
</defs>
</svg>
