<svg width="135" height="119" viewBox="0 0 135 119" fill="none" xmlns="http://www.w3.org/2000/svg">
<circle cx="75.5" cy="59.5" r="59.5" fill="#FFF600"/>
<path d="M94.0352 47.0645L80.75 36.3029V28.2775C80.7502 27.9345 80.6889 27.5949 80.5696 27.278C80.4503 26.9611 80.2753 26.6732 80.0548 26.4307C79.8342 26.1882 79.5723 25.9959 79.2841 25.8647C78.9959 25.7336 78.6869 25.6662 78.375 25.6663H67.6193L48.9102 10.5088C48.5015 10.1783 48.0074 10 47.5 10C46.9926 10 46.4985 10.1783 46.0898 10.5088L27.3807 25.6663H16.625C16.3131 25.6662 16.0042 25.7336 15.7159 25.8647C15.4277 25.9959 15.1658 26.1882 14.9452 26.4307C14.7247 26.6732 14.5497 26.9611 14.4304 27.278C14.3111 27.5949 14.2498 27.9345 14.25 28.2775V36.3034L0.964845 47.0645C0.665412 47.3072 0.422074 47.6239 0.254472 47.989C0.0868705 48.3541 -0.000298853 48.7575 7.69799e-07 49.1664V101.389C-0.000186564 101.732 0.0611165 102.071 0.180405 102.388C0.299694 102.705 0.474628 102.993 0.695205 103.236C0.915781 103.478 1.17767 103.671 1.46591 103.802C1.75414 103.933 2.06306 104 2.375 104H92.625C92.9369 104 93.2459 103.933 93.5341 103.802C93.8223 103.671 94.0842 103.478 94.3048 103.236C94.5254 102.993 94.7003 102.705 94.8196 102.388C94.9389 102.071 95.0002 101.732 95 101.389V49.1664C95.0003 48.7575 94.9131 48.3541 94.7455 47.989C94.5779 47.6239 94.3346 47.3072 94.0352 47.0645ZM4.75 53.9028L27.652 69.8045L4.75 95.0677V53.9028ZM31.77 72.6644L46.2338 82.7076C46.6128 82.9708 47.0518 83.1105 47.5001 83.1105C47.9484 83.1105 48.3875 82.9708 48.7665 82.7076L63.2302 72.6644L86.9027 98.7778H8.09733L31.77 72.6644ZM67.3475 69.8053L90.25 53.9028V95.0671L67.3475 69.8053ZM88.4175 48.9999L80.75 54.3234V42.7896L88.4175 48.9999ZM47.5 15.8538L59.6115 25.6663H35.3885L47.5 15.8538ZM28.1613 30.8886H76V57.6222L47.5 77.4115L19 57.6222V30.8886H28.1613ZM14.25 54.3234L6.58255 48.9995L14.25 42.7896V54.3234Z" fill="black"/>
</svg>
