<svg width="74" height="72" viewBox="0 0 74 72" fill="none" xmlns="http://www.w3.org/2000/svg">
<path d="M72.5885 28.3897L62.3333 20.1468V13.9997C62.3335 13.737 62.2861 13.4769 62.194 13.2342C62.102 12.9915 61.9669 12.7709 61.7967 12.5852C61.6264 12.3994 61.4242 12.2521 61.2017 12.1517C60.9793 12.0512 60.7408 11.9996 60.5 11.9997H52.1974L37.7552 0.389709C37.4397 0.136545 37.0583 0 36.6667 0C36.275 0 35.8936 0.136545 35.5781 0.389709L21.136 11.9997H12.8333C12.5925 11.9996 12.3541 12.0512 12.1316 12.1517C11.9091 12.2521 11.7069 12.3994 11.5367 12.5852C11.3664 12.7709 11.2314 12.9915 11.1393 13.2342C11.0472 13.4769 10.9999 13.737 11 13.9997V20.1472L0.744792 28.3897C0.513651 28.5756 0.325811 28.8182 0.196435 29.0978C0.0670579 29.3775 -0.000230694 29.6864 5.94231e-07 29.9997V69.9997C-0.000144014 70.2624 0.0471776 70.5225 0.13926 70.7653C0.231342 71.008 0.36638 71.2285 0.536649 71.4143C0.706919 71.6 0.909081 71.7473 1.13158 71.8478C1.35407 71.9482 1.59254 71.9999 1.83333 71.9997H71.5C71.7408 71.9999 71.9793 71.9482 72.2018 71.8478C72.4243 71.7473 72.6264 71.6 72.7967 71.4143C72.967 71.2285 73.102 71.008 73.1941 70.7653C73.2862 70.5225 73.3335 70.2624 73.3333 69.9997V29.9997C73.3336 29.6864 73.2663 29.3775 73.1369 29.0978C73.0075 28.8182 72.8197 28.5756 72.5885 28.3897ZM3.66667 33.6275L21.3454 45.8075L3.66667 65.158V33.6275ZM24.5242 47.9981L35.6892 55.6907C35.9818 55.8923 36.3207 55.9993 36.6668 55.9993C37.0128 55.9993 37.3517 55.8923 37.6443 55.6907L48.8093 47.9981L67.0828 67.9997H6.25057L24.5242 47.9981ZM51.9876 45.8081L69.6667 33.6275V65.1575L51.9876 45.8081ZM68.2521 29.8721L62.3333 33.9497V25.1153L68.2521 29.8721ZM36.6667 4.48371L46.0159 11.9997H27.3174L36.6667 4.48371ZM21.7386 15.9997H58.6667V36.4764L36.6667 51.6341L14.6667 36.4764V15.9997H21.7386ZM11 33.9497L5.08127 29.8718L11 25.1153V33.9497Z" fill="#606060"/>
</svg>
