<svg width="175" height="125" viewBox="0 0 175 125" fill="none" xmlns="http://www.w3.org/2000/svg">
<circle cx="115.5" cy="65.5" r="59.5" fill="#0098A0"/>
<g clip-path="url(#clip0_35_35)">
<path fill-rule="evenodd" clip-rule="evenodd" d="M130.677 114.555C130.677 115.125 130.452 115.672 130.05 116.075C129.649 116.478 129.104 116.705 128.536 116.705H102.236C102.11 114.558 101.497 112.468 100.443 110.596H124.579V61.097C124.568 60.9571 124.568 60.8164 124.579 60.6765L71.7107 21.701L17.7715 60.7349C17.8182 60.9141 17.8417 61.0986 17.8413 61.2839V110.596H40.3247L40.2432 110.76C39.2576 112.592 38.6967 114.624 38.6024 116.705H13.8846C13.604 116.705 13.3261 116.649 13.0669 116.541C12.8078 116.433 12.5725 116.274 12.3746 116.074C12.1767 115.875 12.0201 115.638 11.9137 115.377C11.8074 115.116 11.7534 114.837 11.755 114.555V63.4914C9.6973 64.3553 7.40186 64.4629 5.27295 63.795C3.86285 63.327 2.62062 62.4538 1.70028 61.2839C0.782781 60.1156 0.213854 58.7104 0.0594074 57.231C-0.0545466 55.8716 0.102904 54.503 0.52254 53.2054C0.942175 51.9078 1.61556 50.7073 2.50326 49.6741C2.60479 49.5468 2.72211 49.433 2.85238 49.3354L69.8836 0.56058C70.2572 0.219421 70.7388 0.0217608 71.2435 0.00252548C71.7482 -0.0167098 72.2434 0.143718 72.6417 0.455462L139.801 49.1369C139.894 49.2052 139.98 49.2835 140.057 49.3705C141.221 50.5035 142.081 51.9135 142.557 53.4695C143.034 55.0254 143.11 56.6769 142.78 58.2705C142.473 59.5992 141.839 60.8297 140.936 61.8497C140.034 62.8697 138.891 63.6469 137.613 64.1104C136.487 64.5023 135.294 64.6638 134.105 64.5856C132.916 64.5074 131.754 64.1909 130.689 63.6549V114.555H130.677ZM83.3713 121.563C88.3405 125.745 95.5673 119.519 91.6455 114.287C85.0355 106.94 79.531 100.972 76.9708 98.1103C80.3146 94.0924 83.6584 90.0824 87.0022 86.0801C89.8608 87.4728 93.0942 87.8911 96.2112 87.2713C99.3282 86.6515 102.158 85.0276 104.272 82.6462C105.744 80.9764 106.815 78.9898 107.402 76.8394C107.989 74.689 108.077 72.4321 107.659 70.2423C107.547 69.6103 107.396 68.9861 107.205 68.3735L104.004 71.0715C99.8848 74.5755 96.1375 75.3931 92.7627 73.5243C89.3879 71.6555 89.7176 68.2489 93.7519 63.3045L97.3362 58.9246C96.5755 58.7057 95.7964 58.5571 95.0087 58.4807C83.1619 57.231 73.7472 71.9008 81.3697 81.5133C77.8785 84.8771 74.5386 88.3109 71.1987 91.7682C69.3716 89.7943 66.5437 86.6641 53.6379 72.3563L57.5946 68.8524L59.4216 70.9664L64.8563 66.2945L55.9421 55.8761L50.4259 60.6064L52.4276 62.9424L48.4592 66.4464L45.9572 63.5498L39.417 69.1794L41.9539 72.1111L38.2416 75.3347C37.3756 76.0664 36.6432 76.9438 36.0771 77.9276C33.2259 83.1952 37.4386 88.5212 41.2208 91.7915C39.033 85.0873 42.7336 81.8871 47.1675 78.021C52.8465 85.0289 58.5605 92.0368 64.3093 99.0447C60.8181 102.712 54.0684 109.557 50.3445 113.06C48.8782 114.485 47.9355 115.805 48.017 117.919C48.0461 118.632 48.2201 119.331 48.5283 119.974C48.8365 120.617 49.2724 121.189 49.8092 121.657C52.8116 124.32 56.0002 122.708 58.223 120.045L70.1978 106.263C74.0498 110.935 79.4379 117.055 83.3364 121.68L83.3713 121.563Z" fill="black"/>
</g>
<defs>
<clipPath id="clip0_35_35">
<rect width="143" height="123" fill="white"/>
</clipPath>
</defs>
</svg>
