<svg width="155" height="123" viewBox="0 0 155 123" fill="none" xmlns="http://www.w3.org/2000/svg">
<circle cx="95.5" cy="62.5" r="59.5" fill="#FFF600"/>
<g clip-path="url(#clip0_35_30)">
<path d="M5.794 62.906C8.549 65.362 11.302 67.684 14.06 69.87C17.7 64.342 21.666 59.273 25.977 54.692C25.163 53.159 24.703 51.408 24.703 49.553C24.703 48.637 24.814 47.748 25.027 46.895C20.523 43.977 15.888 40.723 11.062 37.097C7.493 44.457 5.495 52.714 5.495 61.438H5.507V61.441H5.494C5.494 62.033 5.506 62.623 5.524 63.21L5.794 62.906ZM13.726 32.231C18.557 35.875 23.18 39.141 27.664 42.062C29.664 39.928 32.51 38.595 35.663 38.595C38.164 38.595 40.468 39.434 42.313 40.845C43.633 39.97 44.98 39.126 46.35 38.321C52.058 34.965 58.183 32.228 64.76 30.144C64.712 29.708 64.69 29.266 64.69 28.822C64.69 27.148 65.025 25.552 65.635 24.101C58.954 18.44 51.042 13.427 41.935 8.998C34.336 11.828 27.519 16.262 21.891 21.89C18.783 24.995 16.039 28.467 13.726 32.231ZM49.604 6.753C56.806 10.629 63.231 14.903 68.855 19.62C70.735 17.972 73.125 16.888 75.755 16.638C76.345 13.749 76.902 10.812 77.431 7.819C72.363 6.308 66.997 5.492 61.442 5.492V5.504H61.437V5.492C57.377 5.492 53.42 5.93 49.604 6.753ZM82.68 9.679C82.215 12.278 81.728 14.838 81.218 17.357C84.885 18.733 87.717 21.817 88.744 25.641C93.708 25.276 98.871 25.205 104.248 25.441C103.212 24.212 102.128 23.024 100.992 21.887C95.794 16.692 89.583 12.516 82.68 9.679ZM108.505 31.204C101.634 30.689 95.118 30.676 88.943 31.141C88.437 33.783 87.079 36.123 85.17 37.865C86.794 40.368 88.266 42.962 89.581 45.65C91.497 49.571 93.075 53.689 94.32 58.004C94.699 57.965 95.084 57.943 95.476 57.943C100.395 57.943 104.558 61.183 105.944 65.651C109.57 65.778 113.319 65.845 117.211 65.869C117.326 64.406 117.388 62.931 117.388 61.442H117.376V61.439V61.437H117.388C117.385 50.302 114.124 39.925 108.505 31.204ZM116.508 71.345C112.963 71.32 109.534 71.258 106.205 71.148C105.316 75.418 101.939 78.779 97.658 79.645C97.846 84.762 97.67 90.112 97.116 95.698C100.255 95.367 103.438 94.911 106.677 94.338C111.56 87.64 114.99 79.823 116.508 71.345ZM109.836 99.284L109.848 99.341L109.782 99.353C108.261 101.294 106.626 103.14 104.882 104.884C93.773 115.993 78.413 122.866 61.444 122.868V122.88H61.442H61.439V122.868C44.47 122.868 29.111 115.993 17.997 104.881C6.887 93.77 0.013 78.41 0.011 61.441H0V61.438H0.011C0.011 44.467 6.887 29.108 17.999 17.996C29.111 6.884 44.467 0.011 61.437 0.011V0H61.442V0.011C78.413 0.011 93.772 6.885 104.883 17.999C115.995 29.108 122.868 44.467 122.868 61.437H122.88V61.439V61.442H122.868C122.868 75.721 118 88.857 109.836 99.284ZM101.239 100.735C99.631 100.949 98.037 101.134 96.454 101.287C96.257 102.702 96.035 104.131 95.794 105.577C97.62 104.155 99.357 102.625 100.992 100.99L101.239 100.735ZM89.42 109.882C89.98 107.097 90.456 104.371 90.849 101.702C80.828 102.223 71.251 101.5 61.983 99.543C60.171 101.692 57.462 103.063 54.432 103.063C54.207 103.063 53.985 103.054 53.767 103.041C52.018 107.502 50.325 111.842 48.773 115.941C52.843 116.884 57.085 117.386 61.438 117.386V117.374H61.441H61.443V117.386C71.632 117.386 81.188 114.653 89.42 109.882ZM43.483 114.436C45.182 109.92 46.878 105.56 48.601 101.158C46.431 99.569 44.934 97.113 44.619 94.299C34.678 90.36 25.04 84.895 15.511 77.895C13.983 80.469 12.52 83.137 11.118 85.9C13.857 91.519 17.515 96.617 21.89 100.992C27.899 106.999 35.263 111.648 43.483 114.436ZM8.406 79.288C9.288 77.678 10.193 76.1 11.12 74.553C9.49 73.27 7.861 71.941 6.235 70.569C6.728 73.56 7.458 76.477 8.406 79.288ZM45.71 45.173C46.297 46.515 46.624 47.996 46.624 49.554C46.624 50.602 46.475 51.617 46.2 52.577C52.221 55.457 58.139 57.743 64.137 59.548C66.317 53.021 68.412 46.243 70.363 39.152C68.83 38.176 67.53 36.87 66.562 35.333C60.317 37.297 54.516 39.88 49.123 43.05C47.969 43.728 46.828 44.438 45.71 45.173ZM43.39 57.325C41.409 59.298 38.678 60.516 35.662 60.516C33.46 60.516 31.408 59.865 29.688 58.749C25.618 63.108 21.872 67.94 18.422 73.212C27.357 79.816 36.357 85.002 45.593 88.777C47.215 85.541 50.564 83.318 54.43 83.318C54.802 83.318 55.167 83.339 55.53 83.38C57.827 77.378 60.129 71.19 62.363 64.751C56.01 62.831 49.751 60.396 43.39 57.325ZM80.367 40.572C79.276 40.889 78.122 41.059 76.927 41.059C76.465 41.059 76.007 41.036 75.558 40.984C73.635 47.946 71.58 54.604 69.442 61.014C74.692 62.341 80.048 63.334 85.637 64.065C86.45 62.416 87.664 61.003 89.155 59.951C87.98 55.783 86.472 51.821 84.635 48.061C83.369 45.472 81.945 42.979 80.367 40.572ZM92.146 79.347C87.889 77.992 84.76 74.107 84.529 69.458C78.721 68.685 73.143 67.637 67.669 66.235C65.36 72.897 62.981 79.295 60.607 85.492C62.859 87.302 64.301 90.08 64.301 93.191C64.301 93.601 64.274 94.004 64.226 94.402C72.982 96.143 82.047 96.731 91.549 96.159C92.175 90.272 92.37 84.671 92.146 79.347Z" fill="black"/>
</g>
<defs>
<clipPath id="clip0_35_30">
<rect width="122.88" height="122.88" fill="white"/>
</clipPath>
</defs>
</svg>
